<svg width="367" height="128" viewBox="0 0 367 128" fill="none" xmlns="http://www.w3.org/2000/svg">
<path d="M24.14 43.96C20.78 43.96 17.66 43.44 14.78 42.4C11.94 41.32 9.46 39.8 7.34 37.84C5.26 35.88 3.64 33.56 2.48 30.88C1.32 28.2 0.74 25.24 0.74 22C0.74 18.76 1.32 15.8 2.48 13.12C3.64 10.44 5.26 8.12 7.34 6.16C9.46 4.2 11.94 2.7 14.78 1.66C17.66 0.579999 20.78 0.0399988 24.14 0.0399988C28.26 0.0399988 31.9 0.759999 35.06 2.2C38.26 3.64 40.9 5.72 42.98 8.44L34.04 16.42C32.8 14.86 31.42 13.66 29.9 12.82C28.42 11.94 26.74 11.5 24.86 11.5C23.38 11.5 22.04 11.74 20.84 12.22C19.64 12.7 18.6 13.4 17.72 14.32C16.88 15.24 16.22 16.36 15.74 17.68C15.26 18.96 15.02 20.4 15.02 22C15.02 23.6 15.26 25.06 15.74 26.38C16.22 27.66 16.88 28.76 17.72 29.68C18.6 30.6 19.64 31.3 20.84 31.78C22.04 32.26 23.38 32.5 24.86 32.5C26.74 32.5 28.42 32.08 29.9 31.24C31.42 30.36 32.8 29.14 34.04 27.58L42.98 35.56C40.9 38.24 38.26 40.32 35.06 41.8C31.9 43.24 28.26 43.96 24.14 43.96ZM66.5084 43V37.18L65.5484 35.62V24.58C65.5484 22.98 65.0484 21.76 64.0484 20.92C63.0884 20.08 61.5084 19.66 59.3084 19.66C57.8284 19.66 56.3284 19.9 54.8084 20.38C53.2884 20.82 51.9884 21.44 50.9084 22.24L46.5884 13.3C48.5084 12.1 50.8084 11.18 53.4884 10.54C56.1684 9.9 58.7884 9.58 61.3484 9.58C66.9884 9.58 71.3484 10.84 74.4284 13.36C77.5484 15.88 79.1084 19.88 79.1084 25.36V43H66.5084ZM57.2084 43.6C54.5284 43.6 52.2884 43.14 50.4884 42.22C48.6884 41.3 47.3284 40.08 46.4084 38.56C45.4884 37 45.0284 35.28 45.0284 33.4C45.0284 31.28 45.5684 29.48 46.6484 28C47.7284 26.52 49.3684 25.4 51.5684 24.64C53.8084 23.88 56.6284 23.5 60.0284 23.5H66.8684V30.04H62.1884C60.7484 30.04 59.6884 30.28 59.0084 30.76C58.3684 31.2 58.0484 31.88 58.0484 32.8C58.0484 33.56 58.3284 34.2 58.8884 34.72C59.4884 35.2 60.2884 35.44 61.2884 35.44C62.2084 35.44 63.0484 35.2 63.8084 34.72C64.6084 34.2 65.1884 33.4 65.5484 32.32L67.2884 36.34C66.7684 38.78 65.6684 40.6 63.9884 41.8C62.3084 43 60.0484 43.6 57.2084 43.6ZM107.769 9.58C110.289 9.58 112.569 10.1 114.609 11.14C116.649 12.14 118.249 13.72 119.409 15.88C120.609 18.04 121.209 20.84 121.209 24.28V43H107.649V26.62C107.649 24.58 107.289 23.14 106.569 22.3C105.849 21.42 104.869 20.98 103.629 20.98C102.709 20.98 101.849 21.2 101.049 21.64C100.289 22.04 99.6688 22.72 99.1888 23.68C98.7488 24.64 98.5288 25.94 98.5288 27.58V43H84.9688V10.18H97.8688V19.78L95.2888 17.02C96.5688 14.54 98.2888 12.68 100.449 11.44C102.649 10.2 105.089 9.58 107.769 9.58ZM145.324 43.6C141.564 43.6 138.224 42.88 135.304 41.44C132.384 40 130.084 38 128.404 35.44C126.764 32.84 125.944 29.88 125.944 26.56C125.944 23.24 126.764 20.3 128.404 17.74C130.084 15.18 132.384 13.18 135.304 11.74C138.224 10.3 141.564 9.58 145.324 9.58C149.324 9.58 152.744 10.44 155.584 12.16C158.424 13.88 160.384 16.26 161.464 19.3L150.964 24.46C150.284 22.94 149.444 21.84 148.444 21.16C147.484 20.48 146.424 20.14 145.264 20.14C144.264 20.14 143.324 20.38 142.444 20.86C141.604 21.34 140.924 22.06 140.404 23.02C139.924 23.94 139.684 25.12 139.684 26.56C139.684 28 139.924 29.2 140.404 30.16C140.924 31.12 141.604 31.84 142.444 32.32C143.324 32.8 144.264 33.04 145.264 33.04C146.424 33.04 147.484 32.7 148.444 32.02C149.444 31.34 150.284 30.24 150.964 28.72L161.464 33.88C160.384 36.92 158.424 39.3 155.584 41.02C152.744 42.74 149.324 43.6 145.324 43.6ZM182.425 43.6C178.425 43.6 174.925 42.86 171.925 41.38C168.965 39.9 166.665 37.88 165.025 35.32C163.385 32.72 162.565 29.8 162.565 26.56C162.565 23.24 163.365 20.3 164.965 17.74C166.605 15.18 168.825 13.18 171.625 11.74C174.465 10.3 177.645 9.58 181.165 9.58C184.405 9.58 187.385 10.22 190.105 11.5C192.865 12.78 195.065 14.68 196.705 17.2C198.385 19.72 199.225 22.84 199.225 26.56C199.225 27.04 199.205 27.58 199.165 28.18C199.125 28.74 199.085 29.26 199.045 29.74H173.785V23.2H191.845L186.745 24.94C186.745 23.66 186.505 22.58 186.025 21.7C185.585 20.78 184.965 20.08 184.165 19.6C183.365 19.08 182.405 18.82 181.285 18.82C180.165 18.82 179.185 19.08 178.345 19.6C177.545 20.08 176.925 20.78 176.485 21.7C176.045 22.58 175.825 23.66 175.825 24.94V26.98C175.825 28.38 176.105 29.58 176.665 30.58C177.225 31.58 178.025 32.34 179.065 32.86C180.105 33.34 181.365 33.58 182.845 33.58C184.365 33.58 185.605 33.38 186.565 32.98C187.565 32.58 188.605 31.98 189.685 31.18L196.765 38.32C195.165 40.04 193.185 41.36 190.825 42.28C188.505 43.16 185.705 43.6 182.425 43.6ZM203.504 43V10.18H216.404V20.08L214.304 17.26C215.304 14.7 216.904 12.78 219.104 11.5C221.304 10.22 223.944 9.58 227.024 9.58V21.58C226.424 21.5 225.884 21.44 225.404 21.4C224.964 21.36 224.504 21.34 224.024 21.34C221.984 21.34 220.304 21.88 218.984 22.96C217.704 24 217.064 25.82 217.064 28.42V43H203.504Z" fill="url(#paint0_linear_110_2)"/>
<path d="M24.14 116.96C20.78 116.96 17.66 116.44 14.78 115.4C11.94 114.32 9.46 112.8 7.34 110.84C5.26 108.88 3.64 106.56 2.48 103.88C1.32 101.2 0.74 98.24 0.74 95C0.74 91.76 1.32 88.8 2.48 86.12C3.64 83.44 5.26 81.12 7.34 79.16C9.46 77.2 11.94 75.7 14.78 74.66C17.66 73.58 20.78 73.04 24.14 73.04C28.26 73.04 31.9 73.76 35.06 75.2C38.26 76.64 40.9 78.72 42.98 81.44L34.04 89.42C32.8 87.86 31.42 86.66 29.9 85.82C28.42 84.94 26.74 84.5 24.86 84.5C23.38 84.5 22.04 84.74 20.84 85.22C19.64 85.7 18.6 86.4 17.72 87.32C16.88 88.24 16.22 89.36 15.74 90.68C15.26 91.96 15.02 93.4 15.02 95C15.02 96.6 15.26 98.06 15.74 99.38C16.22 100.66 16.88 101.76 17.72 102.68C18.6 103.6 19.64 104.3 20.84 104.78C22.04 105.26 23.38 105.5 24.86 105.5C26.74 105.5 28.42 105.08 29.9 104.24C31.42 103.36 32.8 102.14 34.04 100.58L42.98 108.56C40.9 111.24 38.26 113.32 35.06 114.8C31.9 116.24 28.26 116.96 24.14 116.96ZM63.0509 116.6C59.3309 116.6 56.0309 115.88 53.1509 114.44C50.3109 112.96 48.0709 110.94 46.4309 108.38C44.7909 105.82 43.9709 102.88 43.9709 99.56C43.9709 96.24 44.7909 93.3 46.4309 90.74C48.0709 88.18 50.3109 86.18 53.1509 84.74C56.0309 83.3 59.3309 82.58 63.0509 82.58C66.7709 82.58 70.0709 83.3 72.9509 84.74C75.8309 86.18 78.0709 88.18 79.6709 90.74C81.3109 93.3 82.1309 96.24 82.1309 99.56C82.1309 102.88 81.3109 105.82 79.6709 108.38C78.0709 110.94 75.8309 112.96 72.9509 114.44C70.0709 115.88 66.7709 116.6 63.0509 116.6ZM63.0509 106.04C64.0509 106.04 64.9509 105.8 65.7509 105.32C66.5509 104.84 67.1909 104.12 67.6709 103.16C68.1509 102.16 68.3909 100.96 68.3909 99.56C68.3909 98.12 68.1509 96.94 67.6709 96.02C67.1909 95.06 66.5509 94.34 65.7509 93.86C64.9509 93.38 64.0509 93.14 63.0509 93.14C62.0509 93.14 61.1509 93.38 60.3509 93.86C59.5509 94.34 58.9109 95.06 58.4309 96.02C57.9509 96.94 57.7109 98.12 57.7109 99.56C57.7109 100.96 57.9509 102.16 58.4309 103.16C58.9109 104.12 59.5509 104.84 60.3509 105.32C61.1509 105.8 62.0509 106.04 63.0509 106.04ZM129.815 82.58C132.295 82.58 134.515 83.1 136.475 84.14C138.475 85.14 140.035 86.72 141.155 88.88C142.315 91.04 142.895 93.84 142.895 97.28V116H129.335V99.62C129.335 97.58 128.995 96.14 128.315 95.3C127.635 94.42 126.755 93.98 125.675 93.98C124.875 93.98 124.155 94.18 123.515 94.58C122.875 94.98 122.355 95.62 121.955 96.5C121.595 97.34 121.415 98.5 121.415 99.98V116H107.855V99.62C107.855 97.58 107.535 96.14 106.895 95.3C106.255 94.42 105.355 93.98 104.195 93.98C103.395 93.98 102.675 94.18 102.035 94.58C101.395 94.98 100.875 95.62 100.475 96.5C100.115 97.34 99.935 98.5 99.935 99.98V116H86.375V83.18H99.275V92.6L96.635 89.96C97.875 87.48 99.535 85.64 101.615 84.44C103.695 83.2 106.015 82.58 108.575 82.58C111.455 82.58 113.995 83.34 116.195 84.86C118.435 86.34 119.935 88.7 120.695 91.94L116.555 91.28C117.755 88.56 119.495 86.44 121.775 84.92C124.095 83.36 126.775 82.58 129.815 82.58ZM170.677 116.6C167.837 116.6 165.477 116 163.597 114.8C161.757 113.56 160.397 111.7 159.517 109.22C158.637 106.7 158.197 103.5 158.197 99.62C158.197 95.66 158.597 92.44 159.397 89.96C160.237 87.44 161.577 85.58 163.417 84.38C165.257 83.18 167.677 82.58 170.677 82.58C173.557 82.58 176.197 83.28 178.597 84.68C180.997 86.04 182.917 88 184.357 90.56C185.797 93.08 186.517 96.1 186.517 99.62C186.517 103.14 185.797 106.18 184.357 108.74C182.917 111.26 180.997 113.2 178.597 114.56C176.197 115.92 173.557 116.6 170.677 116.6ZM148.777 127.64V83.18H161.677V87.62L161.737 99.62L162.337 111.62V127.64H148.777ZM167.437 106.04C168.437 106.04 169.337 105.8 170.137 105.32C170.937 104.84 171.577 104.12 172.057 103.16C172.537 102.2 172.777 101.02 172.777 99.62C172.777 98.18 172.537 96.98 172.057 96.02C171.577 95.06 170.937 94.34 170.137 93.86C169.337 93.38 168.437 93.14 167.437 93.14C166.437 93.14 165.537 93.38 164.737 93.86C163.937 94.34 163.297 95.06 162.817 96.02C162.337 96.98 162.097 98.18 162.097 99.62C162.097 101.02 162.337 102.2 162.817 103.16C163.297 104.12 163.937 104.84 164.737 105.32C165.537 105.8 166.437 106.04 167.437 106.04ZM209.829 116V110.18L208.869 108.62V97.58C208.869 95.98 208.369 94.76 207.369 93.92C206.409 93.08 204.829 92.66 202.629 92.66C201.149 92.66 199.649 92.9 198.129 93.38C196.609 93.82 195.309 94.44 194.229 95.24L189.909 86.3C191.829 85.1 194.129 84.18 196.809 83.54C199.489 82.9 202.109 82.58 204.669 82.58C210.309 82.58 214.669 83.84 217.749 86.36C220.869 88.88 222.429 92.88 222.429 98.36V116H209.829ZM200.529 116.6C197.849 116.6 195.609 116.14 193.809 115.22C192.009 114.3 190.649 113.08 189.729 111.56C188.809 110 188.349 108.28 188.349 106.4C188.349 104.28 188.889 102.48 189.969 101C191.049 99.52 192.689 98.4 194.889 97.64C197.129 96.88 199.949 96.5 203.349 96.5H210.189V103.04H205.509C204.069 103.04 203.009 103.28 202.329 103.76C201.689 104.2 201.369 104.88 201.369 105.8C201.369 106.56 201.649 107.2 202.209 107.72C202.809 108.2 203.609 108.44 204.609 108.44C205.529 108.44 206.369 108.2 207.129 107.72C207.929 107.2 208.509 106.4 208.869 105.32L210.609 109.34C210.089 111.78 208.989 113.6 207.309 114.8C205.629 116 203.369 116.6 200.529 116.6ZM251.089 82.58C253.609 82.58 255.889 83.1 257.929 84.14C259.969 85.14 261.569 86.72 262.729 88.88C263.929 91.04 264.529 93.84 264.529 97.28V116H250.969V99.62C250.969 97.58 250.609 96.14 249.889 95.3C249.169 94.42 248.189 93.98 246.949 93.98C246.029 93.98 245.169 94.2 244.369 94.64C243.609 95.04 242.989 95.72 242.509 96.68C242.069 97.64 241.849 98.94 241.849 100.58V116H228.289V83.18H241.189V92.78L238.609 90.02C239.889 87.54 241.609 85.68 243.769 84.44C245.969 83.2 248.409 82.58 251.089 82.58ZM270.418 116V83.18H283.978V116H270.418ZM277.198 80.54C274.718 80.54 272.738 79.88 271.258 78.56C269.778 77.24 269.038 75.6 269.038 73.64C269.038 71.68 269.778 70.04 271.258 68.72C272.738 67.4 274.718 66.74 277.198 66.74C279.678 66.74 281.658 67.36 283.138 68.6C284.618 69.84 285.358 71.44 285.358 73.4C285.358 75.48 284.618 77.2 283.138 78.56C281.658 79.88 279.678 80.54 277.198 80.54ZM307.328 116.6C303.608 116.6 300.308 115.88 297.428 114.44C294.588 112.96 292.348 110.94 290.708 108.38C289.068 105.82 288.248 102.88 288.248 99.56C288.248 96.24 289.068 93.3 290.708 90.74C292.348 88.18 294.588 86.18 297.428 84.74C300.308 83.3 303.608 82.58 307.328 82.58C311.048 82.58 314.348 83.3 317.228 84.74C320.108 86.18 322.348 88.18 323.948 90.74C325.588 93.3 326.408 96.24 326.408 99.56C326.408 102.88 325.588 105.82 323.948 108.38C322.348 110.94 320.108 112.96 317.228 114.44C314.348 115.88 311.048 116.6 307.328 116.6ZM307.328 106.04C308.328 106.04 309.228 105.8 310.028 105.32C310.828 104.84 311.468 104.12 311.948 103.16C312.428 102.16 312.668 100.96 312.668 99.56C312.668 98.12 312.428 96.94 311.948 96.02C311.468 95.06 310.828 94.34 310.028 93.86C309.228 93.38 308.328 93.14 307.328 93.14C306.328 93.14 305.428 93.38 304.628 93.86C303.828 94.34 303.188 95.06 302.708 96.02C302.228 96.94 301.988 98.12 301.988 99.56C301.988 100.96 302.228 102.16 302.708 103.16C303.188 104.12 303.828 104.84 304.628 105.32C305.428 105.8 306.328 106.04 307.328 106.04ZM353.452 82.58C355.972 82.58 358.252 83.1 360.292 84.14C362.332 85.14 363.932 86.72 365.092 88.88C366.292 91.04 366.892 93.84 366.892 97.28V116H353.332V99.62C353.332 97.58 352.972 96.14 352.252 95.3C351.532 94.42 350.552 93.98 349.312 93.98C348.392 93.98 347.532 94.2 346.732 94.64C345.972 95.04 345.352 95.72 344.872 96.68C344.432 97.64 344.212 98.94 344.212 100.58V116H330.652V83.18H343.552V92.78L340.972 90.02C342.252 87.54 343.972 85.68 346.132 84.44C348.332 83.2 350.772 82.58 353.452 82.58Z" fill="#111827"/>
<defs>
<linearGradient id="paint0_linear_110_2" x1="286.5" y1="-2.99998" x2="-19" y2="43" gradientUnits="userSpaceOnUse">
<stop stop-color="#8E6BBF" stop-opacity="0"/>
<stop offset="0.654167" stop-color="#865FBD"/>
</linearGradient>
</defs>
</svg>
